<mxfile host="app.diagrams.net" modified="2022-07-26T22:35:52.660Z" agent="5.0 (Windows NT 10.0; Win64; x64) AppleWebKit/537.36 (KHTML, like Gecko) Chrome/103.0.0.0 Safari/537.36" etag="T77J0ADWPjw5O07sgwKy" version="20.2.0" type="github">
  <diagram id="D51llsfGJ5Mw3eI7ilED" name="Page-1">
    <mxGraphModel dx="2224" dy="1340" grid="1" gridSize="10" guides="1" tooltips="1" connect="1" arrows="1" fold="1" page="1" pageScale="1" pageWidth="3300" pageHeight="2339" math="0" shadow="0">
      <root>
        <mxCell id="0" />
        <mxCell id="1" parent="0" />
        <mxCell id="2eMBAQSVHAzyHeAJcmVH-28" value="" style="rounded=0;whiteSpace=wrap;html=1;strokeWidth=0.5;" vertex="1" parent="1">
          <mxGeometry x="260" y="90" width="220" height="300" as="geometry" />
        </mxCell>
        <mxCell id="2eMBAQSVHAzyHeAJcmVH-29" value="" style="rounded=0;whiteSpace=wrap;html=1;strokeWidth=0.5;" vertex="1" parent="1">
          <mxGeometry x="480" y="90" width="220" height="300" as="geometry" />
        </mxCell>
        <mxCell id="2eMBAQSVHAzyHeAJcmVH-30" value="" style="rounded=0;whiteSpace=wrap;html=1;strokeWidth=0.5;" vertex="1" parent="1">
          <mxGeometry x="700" y="90" width="220" height="300" as="geometry" />
        </mxCell>
        <mxCell id="2eMBAQSVHAzyHeAJcmVH-31" value="" style="rounded=0;whiteSpace=wrap;html=1;strokeWidth=0.5;" vertex="1" parent="1">
          <mxGeometry x="920" y="90" width="220" height="300" as="geometry" />
        </mxCell>
        <mxCell id="2eMBAQSVHAzyHeAJcmVH-32" value="" style="rounded=0;whiteSpace=wrap;html=1;strokeWidth=0.5;" vertex="1" parent="1">
          <mxGeometry x="920" y="390" width="220" height="300" as="geometry" />
        </mxCell>
        <mxCell id="2eMBAQSVHAzyHeAJcmVH-33" value="" style="rounded=0;whiteSpace=wrap;html=1;strokeWidth=0.5;" vertex="1" parent="1">
          <mxGeometry x="700" y="390" width="220" height="300" as="geometry" />
        </mxCell>
        <mxCell id="2eMBAQSVHAzyHeAJcmVH-34" value="" style="rounded=0;whiteSpace=wrap;html=1;strokeWidth=0.5;" vertex="1" parent="1">
          <mxGeometry x="480" y="390" width="220" height="300" as="geometry" />
        </mxCell>
        <mxCell id="2eMBAQSVHAzyHeAJcmVH-35" value="" style="rounded=0;whiteSpace=wrap;html=1;strokeWidth=0.5;" vertex="1" parent="1">
          <mxGeometry x="260" y="390" width="220" height="300" as="geometry" />
        </mxCell>
        <mxCell id="2eMBAQSVHAzyHeAJcmVH-36" value="" style="rounded=0;whiteSpace=wrap;html=1;strokeWidth=0.5;" vertex="1" parent="1">
          <mxGeometry x="260" y="690" width="220" height="300" as="geometry" />
        </mxCell>
        <mxCell id="2eMBAQSVHAzyHeAJcmVH-37" value="" style="rounded=0;whiteSpace=wrap;html=1;strokeWidth=0.5;" vertex="1" parent="1">
          <mxGeometry x="480" y="690" width="220" height="300" as="geometry" />
        </mxCell>
        <mxCell id="2eMBAQSVHAzyHeAJcmVH-38" value="" style="rounded=0;whiteSpace=wrap;html=1;strokeWidth=0.5;" vertex="1" parent="1">
          <mxGeometry x="700" y="690" width="220" height="300" as="geometry" />
        </mxCell>
        <mxCell id="2eMBAQSVHAzyHeAJcmVH-39" value="" style="rounded=0;whiteSpace=wrap;html=1;strokeWidth=0.5;" vertex="1" parent="1">
          <mxGeometry x="920" y="690" width="220" height="300" as="geometry" />
        </mxCell>
        <mxCell id="2eMBAQSVHAzyHeAJcmVH-3" value="" style="rounded=0;whiteSpace=wrap;html=1;strokeWidth=0.5;" vertex="1" parent="1">
          <mxGeometry x="700" y="390" width="220" height="300" as="geometry" />
        </mxCell>
        <mxCell id="2eMBAQSVHAzyHeAJcmVH-6" value="" style="rounded=0;whiteSpace=wrap;html=1;strokeWidth=0.5;" vertex="1" parent="1">
          <mxGeometry x="480" y="390" width="220" height="300" as="geometry" />
        </mxCell>
        <mxCell id="2eMBAQSVHAzyHeAJcmVH-7" value="" style="rounded=0;whiteSpace=wrap;html=1;strokeWidth=0.5;" vertex="1" parent="1">
          <mxGeometry x="700" y="690" width="220" height="300" as="geometry" />
        </mxCell>
        <mxCell id="2eMBAQSVHAzyHeAJcmVH-9" value="" style="rounded=0;whiteSpace=wrap;html=1;strokeWidth=0.5;" vertex="1" parent="1">
          <mxGeometry x="480" y="690" width="220" height="300" as="geometry" />
        </mxCell>
        <mxCell id="2eMBAQSVHAzyHeAJcmVH-49" value="" style="group;rotation=-180;" vertex="1" connectable="0" parent="1">
          <mxGeometry x="920" y="990" width="220" height="300" as="geometry" />
        </mxCell>
        <mxCell id="2eMBAQSVHAzyHeAJcmVH-53" value="" style="group" vertex="1" connectable="0" parent="2eMBAQSVHAzyHeAJcmVH-49">
          <mxGeometry x="-1.4210854715202004e-14" width="220" height="300" as="geometry" />
        </mxCell>
        <mxCell id="2eMBAQSVHAzyHeAJcmVH-74" value="" style="group" vertex="1" connectable="0" parent="2eMBAQSVHAzyHeAJcmVH-53">
          <mxGeometry x="1.4210854715202004e-14" width="220" height="300" as="geometry" />
        </mxCell>
        <mxCell id="2eMBAQSVHAzyHeAJcmVH-50" value="" style="rounded=0;whiteSpace=wrap;html=1;strokeWidth=0.5;rotation=-180;" vertex="1" parent="2eMBAQSVHAzyHeAJcmVH-74">
          <mxGeometry width="220" height="300" as="geometry" />
        </mxCell>
        <mxCell id="2eMBAQSVHAzyHeAJcmVH-51" value="" style="curved=1;endArrow=baseDash;html=1;rounded=1;entryX=1;entryY=0.567;entryDx=0;entryDy=0;endFill=0;entryPerimeter=0;" edge="1" parent="2eMBAQSVHAzyHeAJcmVH-74" target="2eMBAQSVHAzyHeAJcmVH-50">
          <mxGeometry width="50" height="50" relative="1" as="geometry">
            <mxPoint x="80" as="sourcePoint" />
            <mxPoint x="60" y="100" as="targetPoint" />
            <Array as="points">
              <mxPoint x="80" y="110" />
            </Array>
          </mxGeometry>
        </mxCell>
        <mxCell id="2eMBAQSVHAzyHeAJcmVH-52" value="" style="curved=1;endArrow=baseDash;html=1;rounded=1;entryX=1.004;entryY=0.399;entryDx=0;entryDy=0;exitX=0.416;exitY=0.999;exitDx=0;exitDy=0;endFill=0;entryPerimeter=0;exitPerimeter=0;" edge="1" parent="2eMBAQSVHAzyHeAJcmVH-74" source="2eMBAQSVHAzyHeAJcmVH-50" target="2eMBAQSVHAzyHeAJcmVH-50">
          <mxGeometry width="50" height="50" relative="1" as="geometry">
            <mxPoint x="140" y="25" as="sourcePoint" />
            <mxPoint x="50" y="150" as="targetPoint" />
            <Array as="points">
              <mxPoint x="120" y="160" />
            </Array>
          </mxGeometry>
        </mxCell>
        <mxCell id="2eMBAQSVHAzyHeAJcmVH-68" value="" style="group" vertex="1" connectable="0" parent="1">
          <mxGeometry x="920" y="90" width="220" height="300" as="geometry" />
        </mxCell>
        <mxCell id="2eMBAQSVHAzyHeAJcmVH-10" value="" style="rounded=0;whiteSpace=wrap;html=1;strokeWidth=0.5;" vertex="1" parent="2eMBAQSVHAzyHeAJcmVH-68">
          <mxGeometry width="220" height="300" as="geometry" />
        </mxCell>
        <mxCell id="2eMBAQSVHAzyHeAJcmVH-69" value="" style="group" vertex="1" connectable="0" parent="1">
          <mxGeometry x="480" y="90" width="440" height="300" as="geometry" />
        </mxCell>
        <mxCell id="2eMBAQSVHAzyHeAJcmVH-2" value="" style="rounded=0;whiteSpace=wrap;html=1;strokeWidth=0.5;" vertex="1" parent="2eMBAQSVHAzyHeAJcmVH-69">
          <mxGeometry x="220" width="220" height="300" as="geometry" />
        </mxCell>
        <mxCell id="2eMBAQSVHAzyHeAJcmVH-5" value="" style="rounded=0;whiteSpace=wrap;html=1;strokeWidth=0.5;" vertex="1" parent="2eMBAQSVHAzyHeAJcmVH-69">
          <mxGeometry width="220" height="300" as="geometry" />
        </mxCell>
        <mxCell id="2eMBAQSVHAzyHeAJcmVH-21" value="" style="rounded=0;whiteSpace=wrap;html=1;rotation=0;labelBackgroundColor=#828282;" vertex="1" parent="2eMBAQSVHAzyHeAJcmVH-69">
          <mxGeometry y="125" width="440" height="50" as="geometry" />
        </mxCell>
        <mxCell id="2eMBAQSVHAzyHeAJcmVH-70" value="" style="group" vertex="1" connectable="0" parent="1">
          <mxGeometry x="260" y="90" width="220" height="300" as="geometry" />
        </mxCell>
        <mxCell id="2eMBAQSVHAzyHeAJcmVH-1" value="" style="rounded=0;whiteSpace=wrap;html=1;strokeWidth=0.5;" vertex="1" parent="2eMBAQSVHAzyHeAJcmVH-70">
          <mxGeometry width="220" height="300" as="geometry" />
        </mxCell>
        <mxCell id="2eMBAQSVHAzyHeAJcmVH-71" value="" style="group" vertex="1" connectable="0" parent="1">
          <mxGeometry x="260" y="390" width="220" height="600" as="geometry" />
        </mxCell>
        <mxCell id="2eMBAQSVHAzyHeAJcmVH-4" value="" style="rounded=0;whiteSpace=wrap;html=1;strokeWidth=0.5;" vertex="1" parent="2eMBAQSVHAzyHeAJcmVH-71">
          <mxGeometry width="220" height="300" as="geometry" />
        </mxCell>
        <mxCell id="2eMBAQSVHAzyHeAJcmVH-8" value="" style="rounded=0;whiteSpace=wrap;html=1;strokeWidth=0.5;" vertex="1" parent="2eMBAQSVHAzyHeAJcmVH-71">
          <mxGeometry y="300" width="220" height="300" as="geometry" />
        </mxCell>
        <mxCell id="2eMBAQSVHAzyHeAJcmVH-19" value="" style="rounded=0;whiteSpace=wrap;html=1;rotation=90;" vertex="1" parent="2eMBAQSVHAzyHeAJcmVH-71">
          <mxGeometry x="-195" y="275" width="600" height="50" as="geometry" />
        </mxCell>
        <mxCell id="2eMBAQSVHAzyHeAJcmVH-41" value="" style="curved=1;endArrow=baseDash;html=1;rounded=1;entryX=0;entryY=1;entryDx=0;entryDy=0;exitX=0;exitY=0;exitDx=0;exitDy=0;endFill=0;" edge="1" parent="1" source="2eMBAQSVHAzyHeAJcmVH-19" target="2eMBAQSVHAzyHeAJcmVH-21">
          <mxGeometry width="50" height="50" relative="1" as="geometry">
            <mxPoint x="370" y="340" as="sourcePoint" />
            <mxPoint x="420" y="290" as="targetPoint" />
            <Array as="points">
              <mxPoint x="380" y="290" />
            </Array>
          </mxGeometry>
        </mxCell>
        <mxCell id="2eMBAQSVHAzyHeAJcmVH-42" value="" style="curved=1;endArrow=baseDash;html=1;rounded=1;entryX=0;entryY=0;entryDx=0;entryDy=0;exitX=0;exitY=1;exitDx=0;exitDy=0;endFill=0;" edge="1" parent="1" source="2eMBAQSVHAzyHeAJcmVH-19" target="2eMBAQSVHAzyHeAJcmVH-21">
          <mxGeometry width="50" height="50" relative="1" as="geometry">
            <mxPoint x="340" y="365" as="sourcePoint" />
            <mxPoint x="430" y="240" as="targetPoint" />
            <Array as="points">
              <mxPoint x="340" y="230" />
            </Array>
          </mxGeometry>
        </mxCell>
        <mxCell id="2eMBAQSVHAzyHeAJcmVH-72" value="" style="group" vertex="1" connectable="0" parent="1">
          <mxGeometry x="260" y="990" width="220" height="300" as="geometry" />
        </mxCell>
        <mxCell id="2eMBAQSVHAzyHeAJcmVH-14" value="" style="rounded=0;whiteSpace=wrap;html=1;strokeWidth=0.5;" vertex="1" parent="2eMBAQSVHAzyHeAJcmVH-72">
          <mxGeometry width="220" height="300" as="geometry" />
        </mxCell>
        <mxCell id="2eMBAQSVHAzyHeAJcmVH-64" value="" style="curved=1;endArrow=baseDash;html=1;rounded=1;entryX=0.999;entryY=0.438;entryDx=0;entryDy=0;endFill=0;entryPerimeter=0;" edge="1" parent="2eMBAQSVHAzyHeAJcmVH-72" target="2eMBAQSVHAzyHeAJcmVH-14">
          <mxGeometry width="50" height="50" relative="1" as="geometry">
            <mxPoint x="130" as="sourcePoint" />
            <mxPoint x="210" y="129.9000000000001" as="targetPoint" />
            <Array as="points">
              <mxPoint x="130" y="110" />
            </Array>
          </mxGeometry>
        </mxCell>
        <mxCell id="2eMBAQSVHAzyHeAJcmVH-65" value="" style="curved=1;endArrow=baseDash;html=1;rounded=1;entryX=0.997;entryY=0.603;entryDx=0;entryDy=0;endFill=0;entryPerimeter=0;" edge="1" parent="2eMBAQSVHAzyHeAJcmVH-72" target="2eMBAQSVHAzyHeAJcmVH-14">
          <mxGeometry width="50" height="50" relative="1" as="geometry">
            <mxPoint x="80" as="sourcePoint" />
            <mxPoint x="210.8800000000001" y="180.30000000000018" as="targetPoint" />
            <Array as="points">
              <mxPoint x="90" y="160" />
            </Array>
          </mxGeometry>
        </mxCell>
        <mxCell id="2eMBAQSVHAzyHeAJcmVH-73" value="" style="group" vertex="1" connectable="0" parent="1">
          <mxGeometry x="480" y="990" width="440" height="300" as="geometry" />
        </mxCell>
        <mxCell id="2eMBAQSVHAzyHeAJcmVH-15" value="" style="rounded=0;whiteSpace=wrap;html=1;strokeWidth=0.5;" vertex="1" parent="2eMBAQSVHAzyHeAJcmVH-73">
          <mxGeometry width="220" height="300" as="geometry" />
        </mxCell>
        <mxCell id="2eMBAQSVHAzyHeAJcmVH-13" value="" style="rounded=0;whiteSpace=wrap;html=1;strokeWidth=0.5;" vertex="1" parent="2eMBAQSVHAzyHeAJcmVH-73">
          <mxGeometry x="220" width="220" height="300" as="geometry" />
        </mxCell>
        <mxCell id="2eMBAQSVHAzyHeAJcmVH-20" value="" style="rounded=0;whiteSpace=wrap;html=1;rotation=0;" vertex="1" parent="2eMBAQSVHAzyHeAJcmVH-73">
          <mxGeometry y="130" width="440" height="50" as="geometry" />
        </mxCell>
        <mxCell id="2eMBAQSVHAzyHeAJcmVH-75" value="" style="group" vertex="1" connectable="0" parent="1">
          <mxGeometry x="920" y="390" width="220" height="604.3800000000001" as="geometry" />
        </mxCell>
        <mxCell id="2eMBAQSVHAzyHeAJcmVH-11" value="" style="rounded=0;whiteSpace=wrap;html=1;strokeWidth=0.5;" vertex="1" parent="2eMBAQSVHAzyHeAJcmVH-75">
          <mxGeometry width="220" height="300" as="geometry" />
        </mxCell>
        <mxCell id="2eMBAQSVHAzyHeAJcmVH-12" value="" style="rounded=0;whiteSpace=wrap;html=1;strokeWidth=0.5;" vertex="1" parent="2eMBAQSVHAzyHeAJcmVH-75">
          <mxGeometry y="300" width="220" height="300" as="geometry" />
        </mxCell>
        <mxCell id="2eMBAQSVHAzyHeAJcmVH-18" value="" style="rounded=0;whiteSpace=wrap;html=1;rotation=90;" vertex="1" parent="2eMBAQSVHAzyHeAJcmVH-75">
          <mxGeometry x="-199.05999999999995" y="277.19000000000005" width="604.38" height="50" as="geometry" />
        </mxCell>
        <mxCell id="2eMBAQSVHAzyHeAJcmVH-66" value="" style="curved=1;endArrow=baseDash;html=1;rounded=1;entryX=0.356;entryY=0.001;entryDx=0;entryDy=0;exitX=-0.012;exitY=0.577;exitDx=0;exitDy=0;endFill=0;exitPerimeter=0;entryPerimeter=0;" edge="1" parent="1" source="2eMBAQSVHAzyHeAJcmVH-10" target="2eMBAQSVHAzyHeAJcmVH-11">
          <mxGeometry width="50" height="50" relative="1" as="geometry">
            <mxPoint x="1224.38" y="470" as="sourcePoint" />
            <mxPoint x="1314.38" y="595.0000000000009" as="targetPoint" />
            <Array as="points">
              <mxPoint x="1000" y="290" />
            </Array>
          </mxGeometry>
        </mxCell>
        <mxCell id="2eMBAQSVHAzyHeAJcmVH-67" value="" style="curved=1;endArrow=baseDash;html=1;rounded=1;entryX=0.585;entryY=0.001;entryDx=0;entryDy=0;exitX=-0.021;exitY=0.413;exitDx=0;exitDy=0;endFill=0;exitPerimeter=0;entryPerimeter=0;" edge="1" parent="1" source="2eMBAQSVHAzyHeAJcmVH-10" target="2eMBAQSVHAzyHeAJcmVH-11">
          <mxGeometry width="50" height="50" relative="1" as="geometry">
            <mxPoint x="1184.3799999999997" y="420" as="sourcePoint" />
            <mxPoint x="1324.38" y="595.0000000000005" as="targetPoint" />
            <Array as="points">
              <mxPoint x="1060" y="260" />
            </Array>
          </mxGeometry>
        </mxCell>
      </root>
    </mxGraphModel>
  </diagram>
</mxfile>
